<?xml version="1.0" encoding="UTF-8" standalone="no"?>
<svg
   width="1024"
   height="1024"
   viewBox="325 254 374 374"
   version="1.1"
   id="svg6"
   sodipodi:docname="docops.svg"
   inkscape:version="1.4.3 (0d15f75042, 2025-12-25)"
   xmlns:inkscape="http://www.inkscape.org/namespaces/inkscape"
   xmlns:sodipodi="http://sodipodi.sourceforge.net/DTD/sodipodi-0.dtd"
   xmlns="http://www.w3.org/2000/svg"
   xmlns:svg="http://www.w3.org/2000/svg">
  <defs
     id="defs6" />
  <sodipodi:namedview
     id="namedview6"
     pagecolor="#ffffff"
     bordercolor="#000000"
     borderopacity="0.25"
     inkscape:showpageshadow="2"
     inkscape:pageopacity="0.0"
     inkscape:pagecheckerboard="0"
     inkscape:deskcolor="#d1d1d1"
     inkscape:zoom="0.82421875"
     inkscape:cx="512"
     inkscape:cy="512"
     inkscape:window-width="1920"
     inkscape:window-height="1030"
     inkscape:window-x="0"
     inkscape:window-y="0"
     inkscape:window-maximized="1"
     inkscape:current-layer="svg6" />
  <path
     fill="#2D4CF3"
     d="M560.449 361.094C581.495 359.165 594.514 377.513 585.198 396.118L611.532 422.155C611.855 413.863 611.749 404.913 611.792 396.568C622.609 396.623 633.427 396.607 644.244 396.521C643.873 414.143 644.114 432.4 644.125 450.069C635.735 459.274 626.268 468.47 617.541 477.443C603.798 491.665 590.129 505.958 576.533 520.32C577.076 546.988 576.683 574.662 576.86 601.474C586.229 591.793 597.515 580.352 607.232 571.149C614.673 570.846 623.156 570.995 630.633 570.974C620.747 581.494 607.992 593.362 597.637 603.633C587.207 604.443 567.599 603.716 556.163 603.709L556.158 578.801L556.232 520.476C552.403 516.017 546.357 510.263 542.06 505.941L516.286 479.942C498.988 487.179 480.966 478.765 480.725 458.993C480.647 452.28 483.323 445.829 488.13 441.142C492.639 436.797 498.709 434.454 504.968 434.64C510.833 434.813 517.894 437.554 521.674 442.101C528.03 449.748 527.954 456.592 527.414 465.619C538.568 477.543 553.977 492.696 565.812 504.06C580.427 488.133 597.248 471.619 612.413 455.964L612.354 446.116C600.031 434.765 584.762 417.902 572.601 407.752C566 409.555 559.462 409.409 553.292 406.136C547.577 403.092 543.334 397.868 541.527 391.65C537.138 376.7 545.955 364.72 560.449 361.094Z"
     id="path2" />
  <path
     fill="#140A2E"
     d="M372.433 417.156C382.848 417.021 393.52 417.123 403.955 417.12L404.015 513.024L403.954 541.676C403.932 551.629 401.158 570.179 415.213 571.022C428.538 571.82 442.159 571.446 455.537 571.444L543.468 571.379C543.438 578.703 544.073 597.639 543.269 603.771L407.008 603.693C372.709 603.664 372.28 584.565 372.356 557.836L372.387 526.711L372.433 417.156Z"
     id="path3" />
  <path
     fill="#140A2E"
     d="M491.316 283.883C491.626 285.108 491.579 286.321 491.581 287.593C491.615 306.467 491.659 325.213 491.548 344.106C491.22 356.491 492.568 369.393 490.634 381.632C489.124 391.189 479.613 401.932 469.995 403.495C458.807 405.313 445.788 404.623 434.391 404.623L373.689 404.633C373.759 402.634 406.149 370.663 410.391 366.315C437.198 338.673 464.174 311.195 491.316 283.883Z"
     id="path4" />
  <path
     fill="#140A2E"
     d="M519.872 280.745L588.081 280.621C593.928 280.612 601.162 280.841 606.888 280.509C648.124 278.122 644.253 306.302 644.167 337.508L644.114 383.842L628.595 383.911L611.859 383.923L611.863 346.11C611.87 335.917 615.11 314.372 600.953 313.23C590.202 312.363 578.878 312.751 568.046 312.774L504.093 312.892C504.041 302.233 504.049 291.573 504.118 280.914L519.872 280.745Z"
     id="path5" />
  <path
     fill="#2D4CF3"
     d="M622.23 513.696C635.165 511.254 647.638 519.732 650.129 532.657C652.62 545.582 644.19 558.088 631.274 560.628C618.289 563.182 605.701 554.696 603.196 541.701C600.692 528.706 609.226 516.15 622.23 513.696Z"
     id="path6" />
</svg>
